<svg xmlns="http://www.w3.org/2000/svg" viewBox="0 0 512 512">
  <defs>
    <linearGradient id="stage" x1="0" x2="1" y1="0" y2="1">
      <stop offset="0" stop-color="#171717"/>
      <stop offset="1" stop-color="#7f1d1d"/>
    </linearGradient>
    <linearGradient id="keys" x1="0" x2="0" y1="0" y2="1">
      <stop offset="0" stop-color="#fafafa"/>
      <stop offset="1" stop-color="#d4d4d4"/>
    </linearGradient>
  </defs>
  <rect width="512" height="512" fill="url(#stage)"/>
  <circle cx="104" cy="102" r="42" fill="#fbbf24" opacity="0.9"/>
  <circle cx="396" cy="110" r="28" fill="#f97316" opacity="0.85"/>
  <g transform="translate(58 296) rotate(-8 198 82)">
    <rect x="0" y="0" width="396" height="150" rx="18" fill="#111827"/>
    <g transform="translate(18 22)">
      <rect x="0" y="0" width="40" height="104" fill="url(#keys)"/>
      <rect x="43" y="0" width="40" height="104" fill="url(#keys)"/>
      <rect x="86" y="0" width="40" height="104" fill="url(#keys)"/>
      <rect x="129" y="0" width="40" height="104" fill="url(#keys)"/>
      <rect x="172" y="0" width="40" height="104" fill="url(#keys)"/>
      <rect x="215" y="0" width="40" height="104" fill="url(#keys)"/>
      <rect x="258" y="0" width="40" height="104" fill="url(#keys)"/>
      <rect x="301" y="0" width="40" height="104" fill="url(#keys)"/>
      <rect x="28" y="0" width="24" height="66" fill="#111827"/>
      <rect x="72" y="0" width="24" height="66" fill="#111827"/>
      <rect x="158" y="0" width="24" height="66" fill="#111827"/>
      <rect x="202" y="0" width="24" height="66" fill="#111827"/>
      <rect x="246" y="0" width="24" height="66" fill="#111827"/>
    </g>
  </g>
  <path d="M184 126v120c0 24-20 42-48 42s-48-18-48-40 20-38 48-38c10 0 18 2 26 6v-90z" fill="#f5f5f5"/>
  <path d="M328 78v142c0 26-22 46-54 46-28 0-50-18-50-42 0-23 22-40 52-40 12 0 22 3 30 8V78z" fill="#fde68a"/>
  <circle cx="408" cy="240" r="18" fill="#111827"/>
  <path d="M400 230c-22-28-14-58 22-78M416 230c24-24 52-20 68 12" fill="none" stroke="#111827" stroke-width="8" stroke-linecap="round"/>
</svg>
